<svg width="149" height="30" viewBox="0 0 149 30" fill="none" xmlns="http://www.w3.org/2000/svg">
<path d="M8.452 25.76V20.072H21.772V25.76H8.452ZM15.04 15.248L11.944 22.196L12.556 23.996L9.82 29H0.82L15.04 2L29.26 29H20.26L17.596 24.248L18.136 22.196L15.04 15.248ZM29.2698 12.44H42.4098V18.02H29.2698V12.44ZM41.6178 7.22C41.3778 6.956 41.1258 6.74 40.8618 6.572C40.6218 6.404 40.3338 6.32 39.9978 6.32C39.6378 6.32 39.3258 6.392 39.0618 6.536C38.8218 6.68 38.6298 6.908 38.4858 7.22C38.3418 7.508 38.2698 7.868 38.2698 8.3V29H31.6098V6.32C31.6098 5.12 31.8618 4.064 32.3658 3.152C32.8938 2.24 33.6858 1.52 34.7418 0.991998C35.7978 0.463999 37.1298 0.2 38.7378 0.2C39.7458 0.2 40.5978 0.319999 41.2938 0.559999C41.9898 0.799999 42.5658 1.088 43.0218 1.424C43.5018 1.736 43.8858 2.012 44.1738 2.252L41.6178 7.22ZM51.3705 12.44V29H44.5305V12.44H51.3705ZM56.0145 19.568C55.7985 19.28 55.5225 19.04 55.1865 18.848C54.8505 18.656 54.4425 18.56 53.9625 18.56C53.5545 18.56 53.1465 18.68 52.7385 18.92C52.3305 19.16 51.9945 19.532 51.7305 20.036C51.4905 20.54 51.3705 21.188 51.3705 21.98L50.0745 18.92C50.0745 17.6 50.3505 16.424 50.9025 15.392C51.4545 14.36 52.1745 13.544 53.0625 12.944C53.9745 12.32 54.9345 12.008 55.9425 12.008C56.5425 12.008 57.1185 12.164 57.6705 12.476C58.2465 12.764 58.6425 13.112 58.8585 13.52L56.0145 19.568ZM60.303 6.608C60.303 5.552 60.675 4.7 61.419 4.052C62.187 3.404 63.111 3.08 64.191 3.08C65.271 3.08 66.183 3.404 66.927 4.052C67.695 4.7 68.079 5.552 68.079 6.608C68.079 7.664 67.695 8.516 66.927 9.164C66.183 9.812 65.271 10.136 64.191 10.136C63.111 10.136 62.187 9.812 61.419 9.164C60.675 8.516 60.303 7.664 60.303 6.608ZM60.807 12.44H67.539V29H60.807V12.44Z" fill="#1A8754"/>
<path d="M69.5238 12.44H82.6638V18.02H69.5238V12.44ZM81.8718 7.22C81.6318 6.956 81.3798 6.74 81.1158 6.572C80.8758 6.404 80.5878 6.32 80.2518 6.32C79.8918 6.32 79.5798 6.392 79.3158 6.536C79.0758 6.68 78.8838 6.908 78.7398 7.22C78.5958 7.508 78.5238 7.868 78.5238 8.3V29H71.8638V6.32C71.8638 5.12 72.1158 4.064 72.6198 3.152C73.1478 2.24 73.9398 1.52 74.9958 0.991998C76.0518 0.463999 77.3838 0.2 78.9918 0.2C79.9998 0.2 80.8518 0.319999 81.5478 0.559999C82.2438 0.799999 82.8198 1.088 83.2758 1.424C83.7558 1.736 84.1398 2.012 84.4278 2.252L81.8718 7.22ZM90.7604 23.78C90.7604 24.092 90.8324 24.356 90.9764 24.572C91.1444 24.764 91.3484 24.92 91.5884 25.04C91.8524 25.136 92.1284 25.184 92.4164 25.184C92.8724 25.184 93.3044 25.088 93.7124 24.896C94.1444 24.68 94.4924 24.356 94.7564 23.924C95.0444 23.468 95.1884 22.88 95.1884 22.16L95.7644 24.32C95.7644 25.376 95.5004 26.288 94.9724 27.056C94.4444 27.8 93.7244 28.376 92.8124 28.784C91.9004 29.168 90.8684 29.36 89.7164 29.36C88.6364 29.36 87.6404 29.168 86.7284 28.784C85.8164 28.4 85.0844 27.824 84.5324 27.056C83.9804 26.264 83.7044 25.304 83.7044 24.176C83.7044 22.592 84.2564 21.356 85.3604 20.468C86.4884 19.556 88.1084 19.1 90.2204 19.1C91.0844 19.1 91.9124 19.172 92.7044 19.316C93.5204 19.46 94.2404 19.664 94.8644 19.928C95.5124 20.168 96.0164 20.48 96.3764 20.864V23.708C95.9684 23.348 95.4164 23.06 94.7204 22.844C94.0484 22.628 93.3524 22.52 92.6324 22.52C92.1764 22.52 91.8044 22.568 91.5164 22.664C91.2524 22.76 91.0604 22.904 90.9404 23.096C90.8204 23.264 90.7604 23.492 90.7604 23.78ZM87.1244 18.272L85.0004 13.736C86.1524 13.28 87.4484 12.86 88.8884 12.476C90.3524 12.092 91.8764 11.9 93.4604 11.9C95.0204 11.9 96.4364 12.116 97.7084 12.548C98.9804 12.98 99.9884 13.616 100.732 14.456C101.476 15.272 101.848 16.28 101.848 17.48V29H95.1884V19.208C95.1884 18.896 95.1404 18.608 95.0444 18.344C94.9484 18.08 94.7924 17.852 94.5764 17.66C94.3604 17.444 94.0724 17.288 93.7124 17.192C93.3524 17.072 92.9204 17.012 92.4164 17.012C91.7444 17.012 91.0364 17.096 90.2924 17.264C89.5484 17.408 88.8884 17.588 88.3124 17.804C87.7364 17.996 87.3404 18.152 87.1244 18.272ZM112.296 12.44V29H105.456V12.44H112.296ZM116.94 19.568C116.724 19.28 116.448 19.04 116.112 18.848C115.776 18.656 115.368 18.56 114.888 18.56C114.48 18.56 114.072 18.68 113.664 18.92C113.256 19.16 112.92 19.532 112.656 20.036C112.416 20.54 112.296 21.188 112.296 21.98L111 18.92C111 17.6 111.276 16.424 111.828 15.392C112.38 14.36 113.1 13.544 113.988 12.944C114.9 12.32 115.86 12.008 116.868 12.008C117.468 12.008 118.044 12.164 118.596 12.476C119.172 12.764 119.568 13.112 119.784 13.52L116.94 19.568ZM148.589 18.2V29H141.569V18.92C141.569 18.176 141.461 17.6 141.245 17.192C141.029 16.76 140.645 16.544 140.093 16.544C139.805 16.544 139.541 16.628 139.301 16.796C139.061 16.964 138.869 17.228 138.725 17.588C138.581 17.924 138.509 18.368 138.509 18.92V29H131.489V18.92C131.489 18.176 131.381 17.6 131.165 17.192C130.949 16.76 130.565 16.544 130.013 16.544C129.725 16.544 129.461 16.628 129.221 16.796C128.981 16.964 128.789 17.228 128.645 17.588C128.501 17.924 128.429 18.368 128.429 18.92V29H121.769V12.44H128.429V14.924C128.885 14.06 129.521 13.364 130.337 12.836C131.153 12.308 132.161 12.044 133.361 12.044C134.729 12.044 135.773 12.26 136.493 12.692C137.237 13.1 137.765 13.724 138.077 14.564C138.701 13.796 139.469 13.184 140.381 12.728C141.293 12.272 142.313 12.044 143.441 12.044C144.833 12.044 145.889 12.284 146.609 12.764C147.353 13.244 147.869 13.94 148.157 14.852C148.445 15.764 148.589 16.88 148.589 18.2Z" fill="#2D2C6E"/>
</svg>
